<svg xmlns="http://www.w3.org/2000/svg" viewBox="0 0 24 24">
  <path d="m22.5 5.92.33.31.09.09a3.15 3.15 0 0 1 .78 1.9c.1.69.08 1.4.07 2.1v1.35h-3.99l-.03-2.31V8.37c-.01-.2-.03-.39-.06-.59-.08 0-.15-.02-.23-.03l-.12-.01a.9.9 0 0 0-.3.04c-.12.42-.11.84-.11 1.27V16.33c.02.35.02.35.2.64.14.02.27.02.42 0 .15-.13.16-.28.18-.47l.01-.3v-.18l.01-.2v-.17l.01-.64.02-1.46h3.99c.02 2.54.02 2.54-.14 3.32l-.02.1c-.22.98-.81 1.63-1.63 2.16a5.78 5.78 0 0 1-4.24.48 3.75 3.75 0 0 1-2.22-1.47c-.68-1.2-.64-2.64-.63-3.98V10.06c0-1.5.03-2.87 1.14-4.01 1.66-1.51 4.74-1.5 6.47-.13ZM1.73 5.25H7.17c.1 0 .1 0 .14.05l.04.22.02.15.02.17c.02.05.02.1.03.17l.07.48.08.52.14 1.01.18 1.18.3 2.1.3 2.05.03.12c0 .09.02.17.03.26l.02.13.02.12.29 1.94.1.7.16 1.13.07.51a183.35 183.35 0 0 1 .15 1l.02.2H5.3l-.1-1.12-.03-.35-.02-.27-.01-.15-.01-.13-.01-.12-.01-.35h-.94v.2c0 .35-.03.7-.06 1.04l-.02.33-.02.21-.01.1-.08.6H0c0-1.24 0-1.24.06-1.7l.03-.15a21.25 21.25 0 0 1 .11-.9l.12-.92.14-1.07c.1-.64.17-1.28.26-1.9l.24-1.86.02-.11.06-.46.46-3.52.05-.36.07-.5c0-.05 0-.1.02-.15l.02-.14.01-.12.06-.34ZM4.6 9.28c-.06.18-.07.36-.08.56l-.01.12-.04.43a32.83 32.83 0 0 1-.08.91l-.06.79-.05.6-.03.29-.03.4-.01.13-.01.11-.01.1v.44h.84l-.02-.2a104.3 104.3 0 0 1-.36-4.68H4.6ZM9.7 6.23h3.85v1.79h.89c.04.04.04.04.05.13V10.22h-.94l.04 6.98 1.04.05v2.2h-1.11l-.52.01h-.77c-.76 0-1.44-.1-2-.64-.54-.6-.53-1.25-.53-2v-6.6h-.75v-2.2h.75V6.23Zm0 0"/>
</svg>
